<?xml version="1.0" encoding="UTF-8" standalone="no"?>
<!DOCTYPE svg PUBLIC "-//W3C//DTD SVG 1.1//EN"
 "http://www.w3.org/Graphics/SVG/1.1/DTD/svg11.dtd">
<!-- Generated by graphviz version 2.36.0 (20140111.2315)
 -->
<!-- Title: G Pages: 1 -->
<svg width="3185pt" height="807pt"
 viewBox="0.00 0.00 3185.00 807.00" xmlns="http://www.w3.org/2000/svg" xmlns:xlink="http://www.w3.org/1999/xlink">
<g id="graph0" class="graph" transform="scale(1 1) rotate(0) translate(4 803)">
<title>G</title>
<g id="clust1" class="cluster"><title>cluster_Ablaufplan</title>
<polygon fill="none" stroke="black" points="38,-380 38,-779 264,-779 264,-380 38,-380"/>
<text text-anchor="middle" x="151" y="-763.8" font-family="sans-serif" font-size="14.00">Ablaufplan</text>
</g>
<g id="clust3" class="cluster"><title>cluster_Zentrale</title>
<polygon fill="none" stroke="black" points="274,-40 274,-779 1181,-779 1181,-40 274,-40"/>
<text text-anchor="middle" x="727.5" y="-763.8" font-family="sans-serif" font-size="14.00">Zentrale</text>
</g>
<g id="clust4" class="cluster"><title>cluster_Zentrale_telefon</title>
<polygon fill="none" stroke="black" points="282,-88 282,-372 436,-372 436,-88 282,-88"/>
<text text-anchor="middle" x="359" y="-356.8" font-family="sans-serif" font-size="14.00">telefon</text>
</g>
<g id="clust5" class="cluster"><title>cluster_Zentrale_planen</title>
<polygon fill="none" stroke="black" points="444,-321 444,-725 1173,-725 1173,-321 444,-321"/>
<text text-anchor="middle" x="808.5" y="-709.8" font-family="sans-serif" font-size="14.00">planen</text>
</g>
<g id="clust6" class="cluster"><title>cluster_Zentrale_planen_verkaufsschalter</title>
<polygon fill="none" stroke="black" points="870,-380 870,-665 1001,-665 1001,-380 870,-380"/>
<text text-anchor="middle" x="935.5" y="-649.8" font-family="sans-serif" font-size="14.00">verkaufsschalter</text>
</g>
<g id="clust7" class="cluster"><title>cluster_Zentrale_aufbauen</title>
<polygon fill="none" stroke="black" points="700,-88 700,-313 926,-313 926,-88 700,-88"/>
<text text-anchor="middle" x="813" y="-297.8" font-family="sans-serif" font-size="14.00">aufbauen</text>
</g>
<g id="clust2" class="cluster"><title>cluster_Raumbuchungen</title>
<polygon fill="none" stroke="black" points="8,-88 8,-372 266,-372 266,-88 8,-88"/>
<text text-anchor="middle" x="137" y="-356.8" font-family="sans-serif" font-size="14.00">Raumbuchungen</text>
</g>
<g id="clust8" class="cluster"><title>cluster_Schilder</title>
<polygon fill="none" stroke="black" points="1189,-434 1189,-779 1309,-779 1309,-434 1189,-434"/>
<text text-anchor="middle" x="1249" y="-763.8" font-family="sans-serif" font-size="14.00">Schilder</text>
</g>
<g id="clust9" class="cluster"><title>cluster_werbung</title>
<polygon fill="none" stroke="black" points="1317,-434 1317,-779 2973,-779 2973,-434 1317,-434"/>
<text text-anchor="middle" x="2145" y="-763.8" font-family="sans-serif" font-size="14.00">werbung</text>
</g>
<g id="clust10" class="cluster"><title>cluster_werbung_mathe</title>
<polygon fill="none" stroke="black" points="1491,-494 1491,-725 1977,-725 1977,-494 1491,-494"/>
<text text-anchor="middle" x="1734" y="-709.8" font-family="sans-serif" font-size="14.00">mathe</text>
</g>
<g id="clust11" class="cluster"><title>cluster_werbung_physik</title>
<polygon fill="none" stroke="black" points="1985,-494 1985,-725 2471,-725 2471,-494 1985,-494"/>
<text text-anchor="middle" x="2228" y="-709.8" font-family="sans-serif" font-size="14.00">physik</text>
</g>
<g id="clust12" class="cluster"><title>cluster_werbung_info</title>
<polygon fill="none" stroke="black" points="2479,-494 2479,-725 2965,-725 2965,-494 2479,-494"/>
<text text-anchor="middle" x="2722" y="-709.8" font-family="sans-serif" font-size="14.00">info</text>
</g>
<g id="clust13" class="cluster"><title>cluster_weiteres</title>
<polygon fill="none" stroke="black" points="2981,-554 2981,-779 3169,-779 3169,-554 2981,-554"/>
<text text-anchor="middle" x="3075" y="-763.8" font-family="sans-serif" font-size="14.00">weiteres</text>
</g>
<!-- _start -->
<g id="node1" class="node"><title>_start</title>
<ellipse fill="gray" stroke="black" cx="1249" cy="-793" rx="5.4" ry="5.4"/>
</g>
<!-- Ablaufplan__start -->
<g id="node3" class="node"><title>Ablaufplan__start</title>
<ellipse fill="gray" stroke="black" cx="206" cy="-742" rx="5.4" ry="5.4"/>
</g>
<!-- _start&#45;&gt;Ablaufplan__start -->
<g id="edge1" class="edge"><title>_start&#45;&gt;Ablaufplan__start</title>
<path fill="none" stroke="black" d="M1243.55,-792.005C1167.53,-792.071 320.166,-792.498 270,-779 250.38,-773.721 230.384,-761.062 218.085,-752.258"/>
<polygon fill="black" stroke="black" points="219.845,-749.204 209.741,-746.016 215.651,-754.809 219.845,-749.204"/>
</g>
<!-- Zentrale__start -->
<g id="node15" class="node"><title>Zentrale__start</title>
<ellipse fill="gray" stroke="black" cx="813" cy="-742" rx="5.4" ry="5.4"/>
</g>
<!-- _start&#45;&gt;Zentrale__start -->
<g id="edge2" class="edge"><title>_start&#45;&gt;Zentrale__start</title>
<path fill="none" stroke="black" d="M1243.8,-791.416C1200.57,-786.557 900.588,-752.844 828.534,-744.746"/>
<polygon fill="black" stroke="black" points="828.74,-741.247 818.412,-743.608 827.958,-748.203 828.74,-741.247"/>
</g>
<!-- Schilder__start -->
<g id="node37" class="node"><title>Schilder__start</title>
<ellipse fill="gray" stroke="black" cx="1249" cy="-742" rx="5.4" ry="5.4"/>
</g>
<!-- _start&#45;&gt;Schilder__start -->
<g id="edge3" class="edge"><title>_start&#45;&gt;Schilder__start</title>
<path fill="none" stroke="black" d="M1249,-787.478C1249,-780.803 1249,-768.005 1249,-757.845"/>
<polygon fill="black" stroke="black" points="1252.5,-757.654 1249,-747.654 1245.5,-757.654 1252.5,-757.654"/>
</g>
<!-- werbung__start -->
<g id="node43" class="node"><title>werbung__start</title>
<ellipse fill="gray" stroke="black" cx="1559" cy="-742" rx="5.4" ry="5.4"/>
</g>
<!-- _start&#45;&gt;werbung__start -->
<g id="edge4" class="edge"><title>_start&#45;&gt;werbung__start</title>
<path fill="none" stroke="black" d="M1254.38,-791.15C1289.51,-785.597 1486.52,-754.457 1543.54,-745.444"/>
<polygon fill="black" stroke="black" points="1544.14,-748.892 1553.47,-743.874 1543.05,-741.978 1544.14,-748.892"/>
</g>
<!-- weiteres__start -->
<g id="node66" class="node"><title>weiteres__start</title>
<ellipse fill="gray" stroke="black" cx="3034" cy="-742" rx="5.4" ry="5.4"/>
</g>
<!-- _start&#45;&gt;weiteres__start -->
<g id="edge5" class="edge"><title>_start&#45;&gt;weiteres__start</title>
<path fill="none" stroke="black" d="M1254.44,-792.001C1358.89,-792.019 2932.47,-792.067 2977,-779 2994.55,-773.851 3011.91,-761.579 3022.77,-752.795"/>
<polygon fill="black" stroke="black" points="3025.13,-755.382 3030.49,-746.241 3020.6,-750.046 3025.13,-755.382"/>
</g>
<!-- _end -->
<g id="node2" class="node"><title>_end</title>
<ellipse fill="red" stroke="black" cx="1249" cy="-6" rx="5.4" ry="5.4"/>
</g>
<!-- Ablaufplan_welcheModule -->
<g id="node5" class="node"><title>Ablaufplan_welcheModule</title>
<path fill="gray" stroke="black" d="M223.583,-699.5C223.583,-699.5 124.417,-699.5 124.417,-699.5 120.583,-699.5 116.75,-695.667 116.75,-691.833 116.75,-691.833 116.75,-684.167 116.75,-684.167 116.75,-680.333 120.583,-676.5 124.417,-676.5 124.417,-676.5 223.583,-676.5 223.583,-676.5 227.417,-676.5 231.25,-680.333 231.25,-684.167 231.25,-684.167 231.25,-691.833 231.25,-691.833 231.25,-695.667 227.417,-699.5 223.583,-699.5"/>
<text text-anchor="middle" x="174" y="-684.3" font-family="sans-serif" font-size="14.00">welcheModule</text>
</g>
<!-- Ablaufplan__start&#45;&gt;Ablaufplan_welcheModule -->
<g id="edge6" class="edge"><title>Ablaufplan__start&#45;&gt;Ablaufplan_welcheModule</title>
<path fill="none" stroke="black" d="M203.489,-736.92C199.706,-730.772 192.3,-718.737 185.857,-708.267"/>
<polygon fill="black" stroke="black" points="188.78,-706.339 180.558,-699.656 182.818,-710.007 188.78,-706.339"/>
</g>
<!-- Ablaufplan__end -->
<g id="node4" class="node"><title>Ablaufplan__end</title>
<ellipse fill="red" stroke="black" cx="149" cy="-394" rx="5.4" ry="5.4"/>
</g>
<!-- Raumbuchungen__start -->
<g id="node10" class="node"><title>Raumbuchungen__start</title>
<ellipse fill="red" stroke="black" cx="145" cy="-335" rx="5.4" ry="5.4"/>
</g>
<!-- Ablaufplan__end&#45;&gt;Raumbuchungen__start -->
<g id="edge12" class="edge"><title>Ablaufplan__end&#45;&gt;Raumbuchungen__start</title>
<path fill="none" stroke="black" d="M148.686,-388.527C148.122,-380.492 146.915,-363.285 146.035,-350.748"/>
<polygon fill="black" stroke="black" points="149.515,-350.341 145.324,-340.61 142.532,-350.831 149.515,-350.341"/>
</g>
<!-- Ablaufplan_modulConstraints -->
<g id="node6" class="node"><title>Ablaufplan_modulConstraints</title>
<path fill="green" stroke="black" d="M230.333,-639.5C230.333,-639.5 107.667,-639.5 107.667,-639.5 103.833,-639.5 100,-635.667 100,-631.833 100,-631.833 100,-624.167 100,-624.167 100,-620.333 103.833,-616.5 107.667,-616.5 107.667,-616.5 230.333,-616.5 230.333,-616.5 234.167,-616.5 238,-620.333 238,-624.167 238,-624.167 238,-631.833 238,-631.833 238,-635.667 234.167,-639.5 230.333,-639.5"/>
<text text-anchor="middle" x="169" y="-624.3" font-family="sans-serif" font-size="14.00">modulConstraints</text>
</g>
<!-- Ablaufplan_welcheModule&#45;&gt;Ablaufplan_modulConstraints -->
<g id="edge7" class="edge"><title>Ablaufplan_welcheModule&#45;&gt;Ablaufplan_modulConstraints</title>
<path fill="none" stroke="black" d="M173.083,-676.362C172.442,-668.922 171.564,-658.743 170.787,-649.728"/>
<polygon fill="black" stroke="black" points="174.257,-649.233 169.911,-639.571 167.283,-649.834 174.257,-649.233"/>
</g>
<!-- Ablaufplan_moduleOrdnenVerteilen -->
<g id="node7" class="node"><title>Ablaufplan_moduleOrdnenVerteilen</title>
<path fill="red" stroke="black" d="M243.583,-579.5C243.583,-579.5 78.4167,-579.5 78.4167,-579.5 74.5833,-579.5 70.75,-575.667 70.75,-571.833 70.75,-571.833 70.75,-564.167 70.75,-564.167 70.75,-560.333 74.5833,-556.5 78.4167,-556.5 78.4167,-556.5 243.583,-556.5 243.583,-556.5 247.417,-556.5 251.25,-560.333 251.25,-564.167 251.25,-564.167 251.25,-571.833 251.25,-571.833 251.25,-575.667 247.417,-579.5 243.583,-579.5"/>
<text text-anchor="middle" x="161" y="-564.3" font-family="sans-serif" font-size="14.00">moduleOrdnenVerteilen</text>
</g>
<!-- Ablaufplan_modulConstraints&#45;&gt;Ablaufplan_moduleOrdnenVerteilen -->
<g id="edge8" class="edge"><title>Ablaufplan_modulConstraints&#45;&gt;Ablaufplan_moduleOrdnenVerteilen</title>
<path fill="none" stroke="black" d="M167.533,-616.362C166.506,-608.922 165.102,-598.743 163.859,-589.728"/>
<polygon fill="black" stroke="black" points="167.292,-588.999 162.458,-579.571 160.357,-589.955 167.292,-588.999"/>
</g>
<!-- Ablaufplan_modulZeiten -->
<g id="node8" class="node"><title>Ablaufplan_modulZeiten</title>
<path fill="red" stroke="black" d="M198.333,-519.5C198.333,-519.5 109.667,-519.5 109.667,-519.5 105.833,-519.5 102,-515.667 102,-511.833 102,-511.833 102,-504.167 102,-504.167 102,-500.333 105.833,-496.5 109.667,-496.5 109.667,-496.5 198.333,-496.5 198.333,-496.5 202.167,-496.5 206,-500.333 206,-504.167 206,-504.167 206,-511.833 206,-511.833 206,-515.667 202.167,-519.5 198.333,-519.5"/>
<text text-anchor="middle" x="154" y="-504.3" font-family="sans-serif" font-size="14.00">modulZeiten</text>
</g>
<!-- Ablaufplan_moduleOrdnenVerteilen&#45;&gt;Ablaufplan_modulZeiten -->
<g id="edge9" class="edge"><title>Ablaufplan_moduleOrdnenVerteilen&#45;&gt;Ablaufplan_modulZeiten</title>
<path fill="none" stroke="black" d="M159.716,-556.362C158.818,-548.922 157.59,-538.743 156.502,-529.728"/>
<polygon fill="black" stroke="black" points="159.949,-529.079 155.276,-519.571 152.999,-529.918 159.949,-529.079"/>
</g>
<!-- Ablaufplan_gesamteOPhaseTerminieren -->
<g id="node9" class="node"><title>Ablaufplan_gesamteOPhaseTerminieren</title>
<path fill="red" stroke="black" d="M247.583,-459.5C247.583,-459.5 54.4167,-459.5 54.4167,-459.5 50.5833,-459.5 46.75,-455.667 46.75,-451.833 46.75,-451.833 46.75,-444.167 46.75,-444.167 46.75,-440.333 50.5833,-436.5 54.4167,-436.5 54.4167,-436.5 247.583,-436.5 247.583,-436.5 251.417,-436.5 255.25,-440.333 255.25,-444.167 255.25,-444.167 255.25,-451.833 255.25,-451.833 255.25,-455.667 251.417,-459.5 247.583,-459.5"/>
<text text-anchor="middle" x="151" y="-444.3" font-family="sans-serif" font-size="14.00">gesamteOPhaseTerminieren</text>
</g>
<!-- Ablaufplan_modulZeiten&#45;&gt;Ablaufplan_gesamteOPhaseTerminieren -->
<g id="edge10" class="edge"><title>Ablaufplan_modulZeiten&#45;&gt;Ablaufplan_gesamteOPhaseTerminieren</title>
<path fill="none" stroke="black" d="M153.45,-496.362C153.065,-488.922 152.538,-478.743 152.072,-469.728"/>
<polygon fill="black" stroke="black" points="155.559,-469.376 151.547,-459.571 148.568,-469.738 155.559,-469.376"/>
</g>
<!-- Ablaufplan_gesamteOPhaseTerminieren&#45;&gt;Ablaufplan__end -->
<g id="edge11" class="edge"><title>Ablaufplan_gesamteOPhaseTerminieren&#45;&gt;Ablaufplan__end</title>
<path fill="none" stroke="black" d="M150.595,-436.477C150.3,-428.812 149.897,-418.325 149.57,-409.815"/>
<polygon fill="black" stroke="black" points="153.059,-409.458 149.177,-399.6 146.064,-409.728 153.059,-409.458"/>
</g>
<!-- Raumbuchungen_studisProVeranstaltungSchätzen -->
<g id="node12" class="node"><title>Raumbuchungen_studisProVeranstaltungSchätzen</title>
<path fill="red" stroke="black" d="M249.833,-287.5C249.833,-287.5 24.1667,-287.5 24.1667,-287.5 20.3333,-287.5 16.5,-283.667 16.5,-279.833 16.5,-279.833 16.5,-272.167 16.5,-272.167 16.5,-268.333 20.3333,-264.5 24.1667,-264.5 24.1667,-264.5 249.833,-264.5 249.833,-264.5 253.667,-264.5 257.5,-268.333 257.5,-272.167 257.5,-272.167 257.5,-279.833 257.5,-279.833 257.5,-283.667 253.667,-287.5 249.833,-287.5"/>
<text text-anchor="middle" x="137" y="-272.3" font-family="sans-serif" font-size="14.00">studisProVeranstaltungSchätzen</text>
</g>
<!-- Raumbuchungen__start&#45;&gt;Raumbuchungen_studisProVeranstaltungSchätzen -->
<g id="edge13" class="edge"><title>Raumbuchungen__start&#45;&gt;Raumbuchungen_studisProVeranstaltungSchätzen</title>
<path fill="none" stroke="black" d="M144.372,-329.527C143.423,-322.765 141.562,-309.507 139.948,-298.003"/>
<polygon fill="black" stroke="black" points="143.369,-297.196 138.513,-287.78 136.437,-298.169 143.369,-297.196"/>
</g>
<!-- Raumbuchungen__end -->
<g id="node11" class="node"><title>Raumbuchungen__end</title>
<ellipse fill="red" stroke="black" cx="214" cy="-102" rx="5.4" ry="5.4"/>
</g>
<!-- Raumbuchungen__end&#45;&gt;_end -->
<g id="edge17" class="edge"><title>Raumbuchungen__end&#45;&gt;_end</title>
<path fill="none" stroke="black" d="M216.118,-97.0206C222.459,-85.5794 242.57,-52.6101 270,-40 315.656,-19.0113 1111.7,-8.64714 1233.44,-7.18191"/>
<polygon fill="black" stroke="black" points="1233.58,-10.6806 1243.54,-7.06237 1233.5,-3.68108 1233.58,-10.6806"/>
</g>
<!-- Raumbuchungen_zuteilung -->
<g id="node13" class="node"><title>Raumbuchungen_zuteilung</title>
<path fill="red" stroke="black" d="M210.333,-227.5C210.333,-227.5 143.667,-227.5 143.667,-227.5 139.833,-227.5 136,-223.667 136,-219.833 136,-219.833 136,-212.167 136,-212.167 136,-208.333 139.833,-204.5 143.667,-204.5 143.667,-204.5 210.333,-204.5 210.333,-204.5 214.167,-204.5 218,-208.333 218,-212.167 218,-212.167 218,-219.833 218,-219.833 218,-223.667 214.167,-227.5 210.333,-227.5"/>
<text text-anchor="middle" x="177" y="-212.3" font-family="sans-serif" font-size="14.00">zuteilung</text>
</g>
<!-- Raumbuchungen_studisProVeranstaltungSchätzen&#45;&gt;Raumbuchungen_zuteilung -->
<g id="edge14" class="edge"><title>Raumbuchungen_studisProVeranstaltungSchätzen&#45;&gt;Raumbuchungen_zuteilung</title>
<path fill="none" stroke="black" d="M144.337,-264.362C149.806,-256.431 157.422,-245.389 163.924,-235.961"/>
<polygon fill="black" stroke="black" points="166.914,-237.79 169.71,-227.571 161.151,-233.816 166.914,-237.79"/>
</g>
<!-- Raumbuchungen_buchen -->
<g id="node14" class="node"><title>Raumbuchungen_buchen</title>
<path fill="red" stroke="black" d="M225.583,-167.5C225.583,-167.5 174.417,-167.5 174.417,-167.5 170.583,-167.5 166.75,-163.667 166.75,-159.833 166.75,-159.833 166.75,-152.167 166.75,-152.167 166.75,-148.333 170.583,-144.5 174.417,-144.5 174.417,-144.5 225.583,-144.5 225.583,-144.5 229.417,-144.5 233.25,-148.333 233.25,-152.167 233.25,-152.167 233.25,-159.833 233.25,-159.833 233.25,-163.667 229.417,-167.5 225.583,-167.5"/>
<text text-anchor="middle" x="200" y="-152.3" font-family="sans-serif" font-size="14.00">buchen</text>
</g>
<!-- Raumbuchungen_zuteilung&#45;&gt;Raumbuchungen_buchen -->
<g id="edge15" class="edge"><title>Raumbuchungen_zuteilung&#45;&gt;Raumbuchungen_buchen</title>
<path fill="none" stroke="black" d="M181.219,-204.362C184.234,-196.758 188.383,-186.294 192.015,-177.135"/>
<polygon fill="black" stroke="black" points="195.375,-178.157 195.808,-167.571 188.868,-175.576 195.375,-178.157"/>
</g>
<!-- Raumbuchungen_buchen&#45;&gt;Raumbuchungen__end -->
<g id="edge16" class="edge"><title>Raumbuchungen_buchen&#45;&gt;Raumbuchungen__end</title>
<path fill="none" stroke="black" d="M202.833,-144.477C204.942,-136.642 207.845,-125.86 210.163,-117.252"/>
<polygon fill="black" stroke="black" points="213.61,-117.91 212.83,-107.344 206.851,-116.09 213.61,-117.91"/>
</g>
<!-- Zentrale_telefon__start -->
<g id="node17" class="node"><title>Zentrale_telefon__start</title>
<ellipse fill="gray" stroke="black" cx="401" cy="-335" rx="5.4" ry="5.4"/>
</g>
<!-- Zentrale__start&#45;&gt;Zentrale_telefon__start -->
<g id="edge18" class="edge"><title>Zentrale__start&#45;&gt;Zentrale_telefon__start</title>
<path fill="none" stroke="black" d="M807.67,-740.953C763.184,-740.54 454.85,-737.237 440,-725 406.142,-697.098 417,-672.874 417,-629 417,-629 417,-629 417,-447 417,-412.007 409.114,-371.438 404.415,-350.37"/>
<polygon fill="black" stroke="black" points="407.822,-349.568 402.151,-340.618 401.003,-351.151 407.822,-349.568"/>
</g>
<!-- Zentrale_planen__start -->
<g id="node22" class="node"><title>Zentrale_planen__start</title>
<ellipse fill="gray" stroke="black" cx="813" cy="-688" rx="5.4" ry="5.4"/>
</g>
<!-- Zentrale__start&#45;&gt;Zentrale_planen__start -->
<g id="edge19" class="edge"><title>Zentrale__start&#45;&gt;Zentrale_planen__start</title>
<path fill="none" stroke="black" d="M813,-736.567C813,-729.352 813,-714.758 813,-703.628"/>
<polygon fill="black" stroke="black" points="816.5,-703.422 813,-693.422 809.5,-703.422 816.5,-703.422"/>
</g>
<!-- Zentrale__end -->
<g id="node16" class="node"><title>Zentrale__end</title>
<ellipse fill="red" stroke="black" cx="813" cy="-54" rx="5.4" ry="5.4"/>
</g>
<!-- Zentrale__end&#45;&gt;_end -->
<g id="edge44" class="edge"><title>Zentrale__end&#45;&gt;_end</title>
<path fill="none" stroke="black" d="M818.2,-52.4514C861.432,-47.8902 1161.41,-16.2409 1233.47,-8.63896"/>
<polygon fill="black" stroke="black" points="1234.01,-12.1009 1243.59,-7.57095 1233.28,-5.13958 1234.01,-12.1009"/>
</g>
<!-- Zentrale_telefon_beantragen -->
<g id="node19" class="node"><title>Zentrale_telefon_beantragen</title>
<path fill="green" stroke="black" d="M409.333,-287.5C409.333,-287.5 328.667,-287.5 328.667,-287.5 324.833,-287.5 321,-283.667 321,-279.833 321,-279.833 321,-272.167 321,-272.167 321,-268.333 324.833,-264.5 328.667,-264.5 328.667,-264.5 409.333,-264.5 409.333,-264.5 413.167,-264.5 417,-268.333 417,-272.167 417,-272.167 417,-279.833 417,-279.833 417,-283.667 413.167,-287.5 409.333,-287.5"/>
<text text-anchor="middle" x="369" y="-272.3" font-family="sans-serif" font-size="14.00">beantragen</text>
</g>
<!-- Zentrale_telefon__start&#45;&gt;Zentrale_telefon_beantragen -->
<g id="edge20" class="edge"><title>Zentrale_telefon__start&#45;&gt;Zentrale_telefon_beantragen</title>
<path fill="none" stroke="black" d="M398.699,-329.901C394.809,-322.972 386.696,-308.521 379.932,-296.472"/>
<polygon fill="black" stroke="black" points="382.849,-294.519 374.902,-287.513 376.745,-297.946 382.849,-294.519"/>
</g>
<!-- Zentrale_telefon__end -->
<g id="node18" class="node"><title>Zentrale_telefon__end</title>
<ellipse fill="red" stroke="black" cx="401" cy="-102" rx="5.4" ry="5.4"/>
</g>
<!-- Zentrale_telefon__end&#45;&gt;Zentrale__end -->
<g id="edge24" class="edge"><title>Zentrale_telefon__end&#45;&gt;Zentrale__end</title>
<path fill="none" stroke="black" d="M406.209,-100.418C447.949,-95.7581 728.211,-64.4667 797.521,-56.7282"/>
<polygon fill="black" stroke="black" points="798.077,-60.188 807.627,-55.5999 797.3,-53.2312 798.077,-60.188"/>
</g>
<!-- Zentrale_telefon_imGumbelSuchen -->
<g id="node20" class="node"><title>Zentrale_telefon_imGumbelSuchen</title>
<polygon fill="gray" stroke="black" points="427.25,-227.5 290.75,-227.5 290.75,-204.5 427.25,-204.5 427.25,-227.5"/>
<text text-anchor="middle" x="359" y="-212.3" font-family="sans-serif" font-size="14.00">imGumbelSuchen</text>
</g>
<!-- Zentrale_telefon_beantragen&#45;&gt;Zentrale_telefon_imGumbelSuchen -->
<g id="edge21" class="edge"><title>Zentrale_telefon_beantragen&#45;&gt;Zentrale_telefon_imGumbelSuchen</title>
<path fill="none" stroke="black" d="M367.166,-264.362C365.869,-256.84 364.089,-246.519 362.523,-237.431"/>
<polygon fill="black" stroke="black" points="365.971,-236.831 360.823,-227.571 359.073,-238.02 365.971,-236.831"/>
</g>
<!-- Zentrale_telefon_testen -->
<g id="node21" class="node"><title>Zentrale_telefon_testen</title>
<path fill="green" stroke="black" d="M400.583,-167.5C400.583,-167.5 355.417,-167.5 355.417,-167.5 351.583,-167.5 347.75,-163.667 347.75,-159.833 347.75,-159.833 347.75,-152.167 347.75,-152.167 347.75,-148.333 351.583,-144.5 355.417,-144.5 355.417,-144.5 400.583,-144.5 400.583,-144.5 404.417,-144.5 408.25,-148.333 408.25,-152.167 408.25,-152.167 408.25,-159.833 408.25,-159.833 408.25,-163.667 404.417,-167.5 400.583,-167.5"/>
<text text-anchor="middle" x="378" y="-152.3" font-family="sans-serif" font-size="14.00">testen</text>
</g>
<!-- Zentrale_telefon_imGumbelSuchen&#45;&gt;Zentrale_telefon_testen -->
<g id="edge22" class="edge"><title>Zentrale_telefon_imGumbelSuchen&#45;&gt;Zentrale_telefon_testen</title>
<path fill="none" stroke="black" d="M362.485,-204.362C364.976,-196.758 368.404,-186.294 371.404,-177.135"/>
<polygon fill="black" stroke="black" points="374.75,-178.163 374.537,-167.571 368.098,-175.984 374.75,-178.163"/>
</g>
<!-- Zentrale_telefon_testen&#45;&gt;Zentrale_telefon__end -->
<g id="edge23" class="edge"><title>Zentrale_telefon_testen&#45;&gt;Zentrale_telefon__end</title>
<path fill="none" stroke="black" d="M382.654,-144.477C386.198,-136.464 391.106,-125.368 394.954,-116.669"/>
<polygon fill="black" stroke="black" points="398.234,-117.905 399.079,-107.344 391.833,-115.074 398.234,-117.905"/>
</g>
<!-- Zentrale_planen_welcheGeräte -->
<g id="node24" class="node"><title>Zentrale_planen_welcheGeräte</title>
<path fill="green" stroke="black" d="M557.583,-639.5C557.583,-639.5 460.417,-639.5 460.417,-639.5 456.583,-639.5 452.75,-635.667 452.75,-631.833 452.75,-631.833 452.75,-624.167 452.75,-624.167 452.75,-620.333 456.583,-616.5 460.417,-616.5 460.417,-616.5 557.583,-616.5 557.583,-616.5 561.417,-616.5 565.25,-620.333 565.25,-624.167 565.25,-624.167 565.25,-631.833 565.25,-631.833 565.25,-635.667 561.417,-639.5 557.583,-639.5"/>
<text text-anchor="middle" x="509" y="-624.3" font-family="sans-serif" font-size="14.00">welcheGeräte</text>
</g>
<!-- Zentrale_planen__start&#45;&gt;Zentrale_planen_welcheGeräte -->
<g id="edge25" class="edge"><title>Zentrale_planen__start&#45;&gt;Zentrale_planen_welcheGeräte</title>
<path fill="none" stroke="black" d="M810.897,-683.01C809.35,-680.52 806.997,-677.509 804,-676 758.497,-653.084 624.052,-678.77 575,-665 559.879,-660.755 544.392,-652.547 532.223,-645.04"/>
<polygon fill="black" stroke="black" points="533.929,-641.976 523.625,-639.512 530.144,-647.864 533.929,-641.976"/>
</g>
<!-- Zentrale_planen_welchesBüromaterial -->
<g id="node25" class="node"><title>Zentrale_planen_welchesBüromaterial</title>
<path fill="green" stroke="black" d="M738.333,-639.5C738.333,-639.5 591.667,-639.5 591.667,-639.5 587.833,-639.5 584,-635.667 584,-631.833 584,-631.833 584,-624.167 584,-624.167 584,-620.333 587.833,-616.5 591.667,-616.5 591.667,-616.5 738.333,-616.5 738.333,-616.5 742.167,-616.5 746,-620.333 746,-624.167 746,-624.167 746,-631.833 746,-631.833 746,-635.667 742.167,-639.5 738.333,-639.5"/>
<text text-anchor="middle" x="665" y="-624.3" font-family="sans-serif" font-size="14.00">welchesBüromaterial</text>
</g>
<!-- Zentrale_planen__start&#45;&gt;Zentrale_planen_welchesBüromaterial -->
<g id="edge26" class="edge"><title>Zentrale_planen__start&#45;&gt;Zentrale_planen_welchesBüromaterial</title>
<path fill="none" stroke="black" d="M810.516,-682.744C808.938,-680.409 806.688,-677.659 804,-676 785.006,-664.278 776.318,-671.61 755,-665 735.651,-659.001 714.6,-650.684 697.724,-643.555"/>
<polygon fill="black" stroke="black" points="698.886,-640.245 688.316,-639.521 696.128,-646.678 698.886,-640.245"/>
</g>
<!-- Zentrale_planen_flowControl -->
<g id="node26" class="node"><title>Zentrale_planen_flowControl</title>
<path fill="green" stroke="black" d="M853.833,-639.5C853.833,-639.5 772.167,-639.5 772.167,-639.5 768.333,-639.5 764.5,-635.667 764.5,-631.833 764.5,-631.833 764.5,-624.167 764.5,-624.167 764.5,-620.333 768.333,-616.5 772.167,-616.5 772.167,-616.5 853.833,-616.5 853.833,-616.5 857.667,-616.5 861.5,-620.333 861.5,-624.167 861.5,-624.167 861.5,-631.833 861.5,-631.833 861.5,-635.667 857.667,-639.5 853.833,-639.5"/>
<text text-anchor="middle" x="813" y="-624.3" font-family="sans-serif" font-size="14.00">flowControl</text>
</g>
<!-- Zentrale_planen__start&#45;&gt;Zentrale_planen_flowControl -->
<g id="edge27" class="edge"><title>Zentrale_planen__start&#45;&gt;Zentrale_planen_flowControl</title>
<path fill="none" stroke="black" d="M813,-682.449C813,-675.415 813,-661.475 813,-649.594"/>
<polygon fill="black" stroke="black" points="816.5,-649.52 813,-639.52 809.5,-649.52 816.5,-649.52"/>
</g>
<!-- Zentrale_planen_verkaufsschalter__start -->
<g id="node27" class="node"><title>Zentrale_planen_verkaufsschalter__start</title>
<ellipse fill="gray" stroke="black" cx="895" cy="-628" rx="5.4" ry="5.4"/>
</g>
<!-- Zentrale_planen__start&#45;&gt;Zentrale_planen_verkaufsschalter__start -->
<g id="edge28" class="edge"><title>Zentrale_planen__start&#45;&gt;Zentrale_planen_verkaufsschalter__start</title>
<path fill="none" stroke="black" d="M818.506,-687.065C832.075,-686.91 867.367,-684.544 886,-665 891.419,-659.316 893.718,-650.882 894.64,-643.606"/>
<polygon fill="black" stroke="black" points="898.145,-643.593 895.201,-633.415 891.156,-643.207 898.145,-643.593"/>
</g>
<!-- Zentrale_planen_wannWoMastertreff -->
<g id="node32" class="node"><title>Zentrale_planen_wannWoMastertreff</title>
<path fill="green" stroke="black" d="M1156.58,-639.5C1156.58,-639.5 1017.42,-639.5 1017.42,-639.5 1013.58,-639.5 1009.75,-635.667 1009.75,-631.833 1009.75,-631.833 1009.75,-624.167 1009.75,-624.167 1009.75,-620.333 1013.58,-616.5 1017.42,-616.5 1017.42,-616.5 1156.58,-616.5 1156.58,-616.5 1160.42,-616.5 1164.25,-620.333 1164.25,-624.167 1164.25,-624.167 1164.25,-631.833 1164.25,-631.833 1164.25,-635.667 1160.42,-639.5 1156.58,-639.5"/>
<text text-anchor="middle" x="1087" y="-624.3" font-family="sans-serif" font-size="14.00">wannWoMastertreff</text>
</g>
<!-- Zentrale_planen__start&#45;&gt;Zentrale_planen_wannWoMastertreff -->
<g id="edge29" class="edge"><title>Zentrale_planen__start&#45;&gt;Zentrale_planen_wannWoMastertreff</title>
<path fill="none" stroke="black" d="M818.455,-686.967C841.513,-686.705 933.094,-684.428 1005,-665 1023.4,-660.03 1042.97,-651.567 1058.38,-644.095"/>
<polygon fill="black" stroke="black" points="1060,-647.2 1067.39,-639.611 1056.88,-640.934 1060,-647.2"/>
</g>
<!-- Zentrale_planen__end -->
<g id="node23" class="node"><title>Zentrale_planen__end</title>
<ellipse fill="red" stroke="black" cx="813" cy="-335" rx="5.4" ry="5.4"/>
</g>
<!-- Zentrale_aufbauen__start -->
<g id="node33" class="node"><title>Zentrale_aufbauen__start</title>
<ellipse fill="red" stroke="black" cx="813" cy="-276" rx="5.4" ry="5.4"/>
</g>
<!-- Zentrale_planen__end&#45;&gt;Zentrale_aufbauen__start -->
<g id="edge39" class="edge"><title>Zentrale_planen__end&#45;&gt;Zentrale_aufbauen__start</title>
<path fill="none" stroke="black" d="M813,-329.527C813,-321.492 813,-304.285 813,-291.748"/>
<polygon fill="black" stroke="black" points="816.5,-291.61 813,-281.61 809.5,-291.61 816.5,-291.61"/>
</g>
<!-- Zentrale_planen_welcheGeräte&#45;&gt;Zentrale_planen__end -->
<g id="edge30" class="edge"><title>Zentrale_planen_welcheGeräte&#45;&gt;Zentrale_planen__end</title>
<path fill="none" stroke="black" d="M551.511,-616.472C570.775,-609.427 591.904,-598.032 604,-580 621.622,-553.729 609,-540.634 609,-509 609,-509 609,-509 609,-447 609,-361.319 749.565,-341.399 797.333,-337.104"/>
<polygon fill="black" stroke="black" points="797.847,-340.574 807.543,-336.304 797.301,-333.596 797.847,-340.574"/>
</g>
<!-- Zentrale_planen_welchesBüromaterial&#45;&gt;Zentrale_planen__end -->
<g id="edge31" class="edge"><title>Zentrale_planen_welchesBüromaterial&#45;&gt;Zentrale_planen__end</title>
<path fill="none" stroke="black" d="M675.568,-616.344C693.746,-596.831 729,-553.28 729,-509 729,-509 729,-509 729,-447 729,-400.479 776.496,-361.158 800.059,-344.514"/>
<polygon fill="black" stroke="black" points="802.163,-347.316 808.484,-338.814 798.24,-341.518 802.163,-347.316"/>
</g>
<!-- Zentrale_planen_flowControl&#45;&gt;Zentrale_planen__end -->
<g id="edge32" class="edge"><title>Zentrale_planen_flowControl&#45;&gt;Zentrale_planen__end</title>
<path fill="none" stroke="black" d="M813,-616.262C813,-595.528 813,-548.538 813,-509 813,-509 813,-509 813,-447 813,-412.526 813,-372.03 813,-350.762"/>
<polygon fill="black" stroke="black" points="816.5,-350.653 813,-340.653 809.5,-350.653 816.5,-350.653"/>
</g>
<!-- Zentrale_planen_verkaufsschalter_was -->
<g id="node29" class="node"><title>Zentrale_planen_verkaufsschalter_was</title>
<path fill="green" stroke="black" d="M924.333,-579.5C924.333,-579.5 885.667,-579.5 885.667,-579.5 881.833,-579.5 878,-575.667 878,-571.833 878,-571.833 878,-564.167 878,-564.167 878,-560.333 881.833,-556.5 885.667,-556.5 885.667,-556.5 924.333,-556.5 924.333,-556.5 928.167,-556.5 932,-560.333 932,-564.167 932,-564.167 932,-571.833 932,-571.833 932,-575.667 928.167,-579.5 924.333,-579.5"/>
<text text-anchor="middle" x="905" y="-564.3" font-family="sans-serif" font-size="14.00">was</text>
</g>
<!-- Zentrale_planen_verkaufsschalter__start&#45;&gt;Zentrale_planen_verkaufsschalter_was -->
<g id="edge33" class="edge"><title>Zentrale_planen_verkaufsschalter__start&#45;&gt;Zentrale_planen_verkaufsschalter_was</title>
<path fill="none" stroke="black" d="M895.785,-622.449C896.997,-615.415 899.401,-601.475 901.449,-589.594"/>
<polygon fill="black" stroke="black" points="904.936,-589.969 903.186,-579.52 898.038,-588.78 904.936,-589.969"/>
</g>
<!-- Zentrale_planen_verkaufsschalter__end -->
<g id="node28" class="node"><title>Zentrale_planen_verkaufsschalter__end</title>
<ellipse fill="red" stroke="black" cx="894" cy="-394" rx="5.4" ry="5.4"/>
</g>
<!-- Zentrale_planen_verkaufsschalter__end&#45;&gt;Zentrale_planen__end -->
<g id="edge37" class="edge"><title>Zentrale_planen_verkaufsschalter__end&#45;&gt;Zentrale_planen__end</title>
<path fill="none" stroke="black" d="M891.71,-388.798C890.084,-386.072 887.714,-382.564 885,-380 867.347,-363.325 842.367,-349.796 826.95,-342.331"/>
<polygon fill="black" stroke="black" points="828.2,-339.052 817.656,-338.008 825.247,-345.399 828.2,-339.052"/>
</g>
<!-- Zentrale_planen_verkaufsschalter_wann -->
<g id="node30" class="node"><title>Zentrale_planen_verkaufsschalter_wann</title>
<path fill="red" stroke="black" d="M925.833,-519.5C925.833,-519.5 886.167,-519.5 886.167,-519.5 882.333,-519.5 878.5,-515.667 878.5,-511.833 878.5,-511.833 878.5,-504.167 878.5,-504.167 878.5,-500.333 882.333,-496.5 886.167,-496.5 886.167,-496.5 925.833,-496.5 925.833,-496.5 929.667,-496.5 933.5,-500.333 933.5,-504.167 933.5,-504.167 933.5,-511.833 933.5,-511.833 933.5,-515.667 929.667,-519.5 925.833,-519.5"/>
<text text-anchor="middle" x="906" y="-504.3" font-family="sans-serif" font-size="14.00">wann</text>
</g>
<!-- Zentrale_planen_verkaufsschalter_was&#45;&gt;Zentrale_planen_verkaufsschalter_wann -->
<g id="edge34" class="edge"><title>Zentrale_planen_verkaufsschalter_was&#45;&gt;Zentrale_planen_verkaufsschalter_wann</title>
<path fill="none" stroke="black" d="M905.183,-556.362C905.312,-548.922 905.487,-538.743 905.643,-529.728"/>
<polygon fill="black" stroke="black" points="909.145,-529.63 905.818,-519.571 902.146,-529.509 909.145,-529.63"/>
</g>
<!-- Zentrale_planen_verkaufsschalter_wer -->
<g id="node31" class="node"><title>Zentrale_planen_verkaufsschalter_wer</title>
<path fill="red" stroke="black" d="M924.333,-459.5C924.333,-459.5 885.667,-459.5 885.667,-459.5 881.833,-459.5 878,-455.667 878,-451.833 878,-451.833 878,-444.167 878,-444.167 878,-440.333 881.833,-436.5 885.667,-436.5 885.667,-436.5 924.333,-436.5 924.333,-436.5 928.167,-436.5 932,-440.333 932,-444.167 932,-444.167 932,-451.833 932,-451.833 932,-455.667 928.167,-459.5 924.333,-459.5"/>
<text text-anchor="middle" x="905" y="-444.3" font-family="sans-serif" font-size="14.00">wer</text>
</g>
<!-- Zentrale_planen_verkaufsschalter_wann&#45;&gt;Zentrale_planen_verkaufsschalter_wer -->
<g id="edge35" class="edge"><title>Zentrale_planen_verkaufsschalter_wann&#45;&gt;Zentrale_planen_verkaufsschalter_wer</title>
<path fill="none" stroke="black" d="M905.817,-496.362C905.688,-488.922 905.513,-478.743 905.357,-469.728"/>
<polygon fill="black" stroke="black" points="908.854,-469.509 905.182,-459.571 901.855,-469.63 908.854,-469.509"/>
</g>
<!-- Zentrale_planen_verkaufsschalter_wer&#45;&gt;Zentrale_planen_verkaufsschalter__end -->
<g id="edge36" class="edge"><title>Zentrale_planen_verkaufsschalter_wer&#45;&gt;Zentrale_planen_verkaufsschalter__end</title>
<path fill="none" stroke="black" d="M902.774,-436.477C901.117,-428.642 898.836,-417.86 897.015,-409.252"/>
<polygon fill="black" stroke="black" points="900.413,-408.403 894.919,-399.344 893.564,-409.852 900.413,-408.403"/>
</g>
<!-- Zentrale_planen_wannWoMastertreff&#45;&gt;Zentrale_planen__end -->
<g id="edge38" class="edge"><title>Zentrale_planen_wannWoMastertreff&#45;&gt;Zentrale_planen__end</title>
<path fill="none" stroke="black" d="M1080.91,-616.33C1069.94,-596.088 1048,-550.426 1048,-509 1048,-509 1048,-509 1048,-447 1048,-349.671 881.154,-337.554 828.632,-336.15"/>
<polygon fill="black" stroke="black" points="828.406,-332.646 818.35,-335.981 828.291,-339.645 828.406,-332.646"/>
</g>
<!-- Zentrale_aufbauen_reinigungGumbelAufhängen -->
<g id="node35" class="node"><title>Zentrale_aufbauen_reinigungGumbelAufhängen</title>
<path fill="red" stroke="black" d="M910.333,-227.5C910.333,-227.5 715.667,-227.5 715.667,-227.5 711.833,-227.5 708,-223.667 708,-219.833 708,-219.833 708,-212.167 708,-212.167 708,-208.333 711.833,-204.5 715.667,-204.5 715.667,-204.5 910.333,-204.5 910.333,-204.5 914.167,-204.5 918,-208.333 918,-212.167 918,-212.167 918,-219.833 918,-219.833 918,-223.667 914.167,-227.5 910.333,-227.5"/>
<text text-anchor="middle" x="813" y="-212.3" font-family="sans-serif" font-size="14.00">reinigungGumbelAufhängen</text>
</g>
<!-- Zentrale_aufbauen__start&#45;&gt;Zentrale_aufbauen_reinigungGumbelAufhängen -->
<g id="edge40" class="edge"><title>Zentrale_aufbauen__start&#45;&gt;Zentrale_aufbauen_reinigungGumbelAufhängen</title>
<path fill="none" stroke="black" d="M813,-270.449C813,-263.415 813,-249.475 813,-237.594"/>
<polygon fill="black" stroke="black" points="816.5,-237.52 813,-227.52 809.5,-237.52 816.5,-237.52"/>
</g>
<!-- Zentrale_aufbauen__end -->
<g id="node34" class="node"><title>Zentrale_aufbauen__end</title>
<ellipse fill="red" stroke="black" cx="813" cy="-102" rx="5.4" ry="5.4"/>
</g>
<!-- Zentrale_aufbauen__end&#45;&gt;Zentrale__end -->
<g id="edge43" class="edge"><title>Zentrale_aufbauen__end&#45;&gt;Zentrale__end</title>
<path fill="none" stroke="black" d="M813,-96.4212C813,-90.2215 813,-78.8686 813,-69.6142"/>
<polygon fill="black" stroke="black" points="816.5,-69.5603 813,-59.5603 809.5,-69.5603 816.5,-69.5603"/>
</g>
<!-- Zentrale_aufbauen_studisGumbelAufhängen -->
<g id="node36" class="node"><title>Zentrale_aufbauen_studisGumbelAufhängen</title>
<path fill="red" stroke="black" d="M897.583,-167.5C897.583,-167.5 728.417,-167.5 728.417,-167.5 724.583,-167.5 720.75,-163.667 720.75,-159.833 720.75,-159.833 720.75,-152.167 720.75,-152.167 720.75,-148.333 724.583,-144.5 728.417,-144.5 728.417,-144.5 897.583,-144.5 897.583,-144.5 901.417,-144.5 905.25,-148.333 905.25,-152.167 905.25,-152.167 905.25,-159.833 905.25,-159.833 905.25,-163.667 901.417,-167.5 897.583,-167.5"/>
<text text-anchor="middle" x="813" y="-152.3" font-family="sans-serif" font-size="14.00">studisGumbelAufhängen</text>
</g>
<!-- Zentrale_aufbauen_reinigungGumbelAufhängen&#45;&gt;Zentrale_aufbauen_studisGumbelAufhängen -->
<g id="edge41" class="edge"><title>Zentrale_aufbauen_reinigungGumbelAufhängen&#45;&gt;Zentrale_aufbauen_studisGumbelAufhängen</title>
<path fill="none" stroke="black" d="M813,-204.362C813,-196.922 813,-186.743 813,-177.728"/>
<polygon fill="black" stroke="black" points="816.5,-177.571 813,-167.571 809.5,-177.571 816.5,-177.571"/>
</g>
<!-- Zentrale_aufbauen_studisGumbelAufhängen&#45;&gt;Zentrale_aufbauen__end -->
<g id="edge42" class="edge"><title>Zentrale_aufbauen_studisGumbelAufhängen&#45;&gt;Zentrale_aufbauen__end</title>
<path fill="none" stroke="black" d="M813,-144.477C813,-136.812 813,-126.325 813,-117.815"/>
<polygon fill="black" stroke="black" points="816.5,-117.6 813,-107.6 809.5,-117.6 816.5,-117.6"/>
</g>
<!-- Schilder_wo -->
<g id="node39" class="node"><title>Schilder_wo</title>
<path fill="green" stroke="black" d="M1268.33,-699.5C1268.33,-699.5 1229.67,-699.5 1229.67,-699.5 1225.83,-699.5 1222,-695.667 1222,-691.833 1222,-691.833 1222,-684.167 1222,-684.167 1222,-680.333 1225.83,-676.5 1229.67,-676.5 1229.67,-676.5 1268.33,-676.5 1268.33,-676.5 1272.17,-676.5 1276,-680.333 1276,-684.167 1276,-684.167 1276,-691.833 1276,-691.833 1276,-695.667 1272.17,-699.5 1268.33,-699.5"/>
<text text-anchor="middle" x="1249" y="-684.3" font-family="sans-serif" font-size="14.00">wo</text>
</g>
<!-- Schilder__start&#45;&gt;Schilder_wo -->
<g id="edge45" class="edge"><title>Schilder__start&#45;&gt;Schilder_wo</title>
<path fill="none" stroke="black" d="M1249,-736.567C1249,-730.65 1249,-719.773 1249,-709.912"/>
<polygon fill="black" stroke="black" points="1252.5,-709.893 1249,-699.893 1245.5,-709.893 1252.5,-709.893"/>
</g>
<!-- Schilder__end -->
<g id="node38" class="node"><title>Schilder__end</title>
<ellipse fill="red" stroke="black" cx="1249" cy="-448" rx="5.4" ry="5.4"/>
</g>
<!-- Schilder__end&#45;&gt;_end -->
<g id="edge50" class="edge"><title>Schilder__end&#45;&gt;_end</title>
<path fill="none" stroke="black" d="M1249,-442.347C1249,-427.098 1249,-377.24 1249,-336 1249,-336 1249,-336 1249,-101 1249,-73.0211 1249,-40.3577 1249,-21.8331"/>
<polygon fill="black" stroke="black" points="1252.5,-21.6948 1249,-11.6948 1245.5,-21.6949 1252.5,-21.6948"/>
</g>
<!-- Schilder_aufhängPlan -->
<g id="node40" class="node"><title>Schilder_aufhängPlan</title>
<path fill="red" stroke="black" d="M1292.58,-639.5C1292.58,-639.5 1205.42,-639.5 1205.42,-639.5 1201.58,-639.5 1197.75,-635.667 1197.75,-631.833 1197.75,-631.833 1197.75,-624.167 1197.75,-624.167 1197.75,-620.333 1201.58,-616.5 1205.42,-616.5 1205.42,-616.5 1292.58,-616.5 1292.58,-616.5 1296.42,-616.5 1300.25,-620.333 1300.25,-624.167 1300.25,-624.167 1300.25,-631.833 1300.25,-631.833 1300.25,-635.667 1296.42,-639.5 1292.58,-639.5"/>
<text text-anchor="middle" x="1249" y="-624.3" font-family="sans-serif" font-size="14.00">aufhängPlan</text>
</g>
<!-- Schilder_wo&#45;&gt;Schilder_aufhängPlan -->
<g id="edge46" class="edge"><title>Schilder_wo&#45;&gt;Schilder_aufhängPlan</title>
<path fill="none" stroke="black" d="M1249,-676.362C1249,-668.922 1249,-658.743 1249,-649.728"/>
<polygon fill="black" stroke="black" points="1252.5,-649.571 1249,-639.571 1245.5,-649.571 1252.5,-649.571"/>
</g>
<!-- Schilder_abhängPlan -->
<g id="node41" class="node"><title>Schilder_abhängPlan</title>
<path fill="red" stroke="black" d="M1289.83,-579.5C1289.83,-579.5 1208.17,-579.5 1208.17,-579.5 1204.33,-579.5 1200.5,-575.667 1200.5,-571.833 1200.5,-571.833 1200.5,-564.167 1200.5,-564.167 1200.5,-560.333 1204.33,-556.5 1208.17,-556.5 1208.17,-556.5 1289.83,-556.5 1289.83,-556.5 1293.67,-556.5 1297.5,-560.333 1297.5,-564.167 1297.5,-564.167 1297.5,-571.833 1297.5,-571.833 1297.5,-575.667 1293.67,-579.5 1289.83,-579.5"/>
<text text-anchor="middle" x="1249" y="-564.3" font-family="sans-serif" font-size="14.00">abhängPlan</text>
</g>
<!-- Schilder_aufhängPlan&#45;&gt;Schilder_abhängPlan -->
<g id="edge47" class="edge"><title>Schilder_aufhängPlan&#45;&gt;Schilder_abhängPlan</title>
<path fill="none" stroke="black" d="M1249,-616.362C1249,-608.922 1249,-598.743 1249,-589.728"/>
<polygon fill="black" stroke="black" points="1252.5,-589.571 1249,-579.571 1245.5,-589.571 1252.5,-589.571"/>
</g>
<!-- Schilder_erstellen -->
<g id="node42" class="node"><title>Schilder_erstellen</title>
<path fill="red" stroke="black" d="M1279.58,-519.5C1279.58,-519.5 1218.42,-519.5 1218.42,-519.5 1214.58,-519.5 1210.75,-515.667 1210.75,-511.833 1210.75,-511.833 1210.75,-504.167 1210.75,-504.167 1210.75,-500.333 1214.58,-496.5 1218.42,-496.5 1218.42,-496.5 1279.58,-496.5 1279.58,-496.5 1283.42,-496.5 1287.25,-500.333 1287.25,-504.167 1287.25,-504.167 1287.25,-511.833 1287.25,-511.833 1287.25,-515.667 1283.42,-519.5 1279.58,-519.5"/>
<text text-anchor="middle" x="1249" y="-504.3" font-family="sans-serif" font-size="14.00">erstellen</text>
</g>
<!-- Schilder_abhängPlan&#45;&gt;Schilder_erstellen -->
<g id="edge48" class="edge"><title>Schilder_abhängPlan&#45;&gt;Schilder_erstellen</title>
<path fill="none" stroke="black" d="M1249,-556.362C1249,-548.922 1249,-538.743 1249,-529.728"/>
<polygon fill="black" stroke="black" points="1252.5,-529.571 1249,-519.571 1245.5,-529.571 1252.5,-529.571"/>
</g>
<!-- Schilder_erstellen&#45;&gt;Schilder__end -->
<g id="edge49" class="edge"><title>Schilder_erstellen&#45;&gt;Schilder__end</title>
<path fill="none" stroke="black" d="M1249,-496.362C1249,-487.148 1249,-473.732 1249,-463.53"/>
<polygon fill="black" stroke="black" points="1252.5,-463.473 1249,-453.473 1245.5,-463.473 1252.5,-463.473"/>
</g>
<!-- werbung_gafWebseite -->
<g id="node45" class="node"><title>werbung_gafWebseite</title>
<path fill="green" stroke="black" d="M1435.58,-699.5C1435.58,-699.5 1350.42,-699.5 1350.42,-699.5 1346.58,-699.5 1342.75,-695.667 1342.75,-691.833 1342.75,-691.833 1342.75,-684.167 1342.75,-684.167 1342.75,-680.333 1346.58,-676.5 1350.42,-676.5 1350.42,-676.5 1435.58,-676.5 1435.58,-676.5 1439.42,-676.5 1443.25,-680.333 1443.25,-684.167 1443.25,-684.167 1443.25,-691.833 1443.25,-691.833 1443.25,-695.667 1439.42,-699.5 1435.58,-699.5"/>
<text text-anchor="middle" x="1393" y="-684.3" font-family="sans-serif" font-size="14.00">gafWebseite</text>
</g>
<!-- werbung__start&#45;&gt;werbung_gafWebseite -->
<g id="edge51" class="edge"><title>werbung__start&#45;&gt;werbung_gafWebseite</title>
<path fill="none" stroke="black" d="M1553.42,-740.601C1538.76,-739.436 1498.1,-735.432 1466,-725 1449.95,-719.783 1432.99,-711.598 1419.45,-704.35"/>
<polygon fill="black" stroke="black" points="1421.14,-701.281 1410.69,-699.529 1417.76,-707.415 1421.14,-701.281"/>
</g>
<!-- werbung_facebookErstellen -->
<g id="node46" class="node"><title>werbung_facebookErstellen</title>
<path fill="green" stroke="black" d="M1475.33,-579.5C1475.33,-579.5 1352.67,-579.5 1352.67,-579.5 1348.83,-579.5 1345,-575.667 1345,-571.833 1345,-571.833 1345,-564.167 1345,-564.167 1345,-560.333 1348.83,-556.5 1352.67,-556.5 1352.67,-556.5 1475.33,-556.5 1475.33,-556.5 1479.17,-556.5 1483,-560.333 1483,-564.167 1483,-564.167 1483,-571.833 1483,-571.833 1483,-575.667 1479.17,-579.5 1475.33,-579.5"/>
<text text-anchor="middle" x="1414" y="-564.3" font-family="sans-serif" font-size="14.00">facebookErstellen</text>
</g>
<!-- werbung__start&#45;&gt;werbung_facebookErstellen -->
<g id="edge52" class="edge"><title>werbung__start&#45;&gt;werbung_facebookErstellen</title>
<path fill="none" stroke="black" d="M1553.43,-741.325C1540.34,-741.789 1507.18,-741.182 1487,-725 1464.5,-706.961 1434.47,-627.558 1421.02,-589.492"/>
<polygon fill="black" stroke="black" points="1424.29,-588.226 1417.69,-579.937 1417.68,-590.532 1424.29,-588.226"/>
</g>
<!-- werbung_mathe__start -->
<g id="node48" class="node"><title>werbung_mathe__start</title>
<ellipse fill="gray" stroke="black" cx="1622" cy="-688" rx="5.4" ry="5.4"/>
</g>
<!-- werbung__start&#45;&gt;werbung_mathe__start -->
<g id="edge53" class="edge"><title>werbung__start&#45;&gt;werbung_mathe__start</title>
<path fill="none" stroke="black" d="M1564.32,-741.056C1575.13,-740.866 1599.74,-738.84 1613,-725 1618.43,-719.328 1620.73,-710.895 1621.65,-703.616"/>
<polygon fill="black" stroke="black" points="1625.16,-703.595 1622.21,-693.419 1618.17,-703.214 1625.16,-703.595"/>
</g>
<!-- werbung_physik__start -->
<g id="node54" class="node"><title>werbung_physik__start</title>
<ellipse fill="gray" stroke="black" cx="2116" cy="-688" rx="5.4" ry="5.4"/>
</g>
<!-- werbung__start&#45;&gt;werbung_physik__start -->
<g id="edge54" class="edge"><title>werbung__start&#45;&gt;werbung_physik__start</title>
<path fill="none" stroke="black" d="M1564.48,-740.96C1607.78,-740.619 1895.27,-737.891 1981,-725 2025.73,-718.274 2076.92,-702.246 2101.43,-694.036"/>
<polygon fill="black" stroke="black" points="2102.6,-697.334 2110.94,-690.791 2100.34,-690.71 2102.6,-697.334"/>
</g>
<!-- werbung_info__start -->
<g id="node60" class="node"><title>werbung_info__start</title>
<ellipse fill="gray" stroke="black" cx="2610" cy="-688" rx="5.4" ry="5.4"/>
</g>
<!-- werbung__start&#45;&gt;werbung_info__start -->
<g id="edge55" class="edge"><title>werbung__start&#45;&gt;werbung_info__start</title>
<path fill="none" stroke="black" d="M1564.65,-740.985C1636.91,-740.786 2379.11,-738.418 2475,-725 2519.79,-718.732 2570.96,-702.495 2595.45,-694.137"/>
<polygon fill="black" stroke="black" points="2596.65,-697.424 2604.94,-690.83 2594.35,-690.814 2596.65,-697.424"/>
</g>
<!-- werbung__end -->
<g id="node44" class="node"><title>werbung__end</title>
<ellipse fill="red" stroke="black" cx="1520" cy="-448" rx="5.4" ry="5.4"/>
</g>
<!-- werbung__end&#45;&gt;_end -->
<g id="edge80" class="edge"><title>werbung__end&#45;&gt;_end</title>
<path fill="none" stroke="black" d="M1515.31,-445.27C1493.61,-436.934 1404,-398.716 1404,-336 1404,-336 1404,-336 1404,-101 1404,-36.2572 1303.91,-14.8666 1264.59,-8.96151"/>
<polygon fill="black" stroke="black" points="1264.9,-5.47114 1254.52,-7.5952 1263.96,-12.4076 1264.9,-5.47114"/>
</g>
<!-- werbung_gafWebseite&#45;&gt;werbung__end -->
<g id="edge56" class="edge"><title>werbung_gafWebseite&#45;&gt;werbung__end</title>
<path fill="none" stroke="black" d="M1384.65,-676.141C1360.85,-643.828 1297.52,-547.238 1347,-494 1368.64,-470.718 1466.4,-455.884 1504.62,-450.884"/>
<polygon fill="black" stroke="black" points="1505.28,-454.329 1514.77,-449.608 1504.41,-447.384 1505.28,-454.329"/>
</g>
<!-- werbung_facebookPosten -->
<g id="node47" class="node"><title>werbung_facebookPosten</title>
<path fill="red" stroke="black" d="M1471.83,-519.5C1471.83,-519.5 1364.17,-519.5 1364.17,-519.5 1360.33,-519.5 1356.5,-515.667 1356.5,-511.833 1356.5,-511.833 1356.5,-504.167 1356.5,-504.167 1356.5,-500.333 1360.33,-496.5 1364.17,-496.5 1364.17,-496.5 1471.83,-496.5 1471.83,-496.5 1475.67,-496.5 1479.5,-500.333 1479.5,-504.167 1479.5,-504.167 1479.5,-511.833 1479.5,-511.833 1479.5,-515.667 1475.67,-519.5 1471.83,-519.5"/>
<text text-anchor="middle" x="1418" y="-504.3" font-family="sans-serif" font-size="14.00">facebookPosten</text>
</g>
<!-- werbung_facebookErstellen&#45;&gt;werbung_facebookPosten -->
<g id="edge57" class="edge"><title>werbung_facebookErstellen&#45;&gt;werbung_facebookPosten</title>
<path fill="none" stroke="black" d="M1414.73,-556.362C1415.25,-548.922 1415.95,-538.743 1416.57,-529.728"/>
<polygon fill="black" stroke="black" points="1420.07,-529.788 1417.27,-519.571 1413.09,-529.306 1420.07,-529.788"/>
</g>
<!-- werbung_facebookPosten&#45;&gt;werbung__end -->
<g id="edge58" class="edge"><title>werbung_facebookPosten&#45;&gt;werbung__end</title>
<path fill="none" stroke="black" d="M1436.71,-496.362C1457,-484.825 1488.87,-466.701 1506.73,-456.545"/>
<polygon fill="black" stroke="black" points="1508.66,-459.473 1515.63,-451.488 1505.2,-453.388 1508.66,-459.473"/>
</g>
<!-- werbung_mathe_webseitZuständigerHerausfinden -->
<g id="node50" class="node"><title>werbung_mathe_webseitZuständigerHerausfinden</title>
<path fill="green" stroke="black" d="M1736.58,-639.5C1736.58,-639.5 1507.42,-639.5 1507.42,-639.5 1503.58,-639.5 1499.75,-635.667 1499.75,-631.833 1499.75,-631.833 1499.75,-624.167 1499.75,-624.167 1499.75,-620.333 1503.58,-616.5 1507.42,-616.5 1507.42,-616.5 1736.58,-616.5 1736.58,-616.5 1740.42,-616.5 1744.25,-620.333 1744.25,-624.167 1744.25,-624.167 1744.25,-631.833 1744.25,-631.833 1744.25,-635.667 1740.42,-639.5 1736.58,-639.5"/>
<text text-anchor="middle" x="1622" y="-624.3" font-family="sans-serif" font-size="14.00">webseitZuständigerHerausfinden</text>
</g>
<!-- werbung_mathe__start&#45;&gt;werbung_mathe_webseitZuständigerHerausfinden -->
<g id="edge59" class="edge"><title>werbung_mathe__start&#45;&gt;werbung_mathe_webseitZuständigerHerausfinden</title>
<path fill="none" stroke="black" d="M1622,-682.449C1622,-675.415 1622,-661.475 1622,-649.594"/>
<polygon fill="black" stroke="black" points="1625.5,-649.52 1622,-639.52 1618.5,-649.52 1625.5,-649.52"/>
</g>
<!-- werbung_mathe_lsfZuständigerHerausfinden -->
<g id="node52" class="node"><title>werbung_mathe_lsfZuständigerHerausfinden</title>
<path fill="green" stroke="black" d="M1961.33,-639.5C1961.33,-639.5 1770.67,-639.5 1770.67,-639.5 1766.83,-639.5 1763,-635.667 1763,-631.833 1763,-631.833 1763,-624.167 1763,-624.167 1763,-620.333 1766.83,-616.5 1770.67,-616.5 1770.67,-616.5 1961.33,-616.5 1961.33,-616.5 1965.17,-616.5 1969,-620.333 1969,-624.167 1969,-624.167 1969,-631.833 1969,-631.833 1969,-635.667 1965.17,-639.5 1961.33,-639.5"/>
<text text-anchor="middle" x="1866" y="-624.3" font-family="sans-serif" font-size="14.00">lsfZuständigerHerausfinden</text>
</g>
<!-- werbung_mathe__start&#45;&gt;werbung_mathe_lsfZuständigerHerausfinden -->
<g id="edge60" class="edge"><title>werbung_mathe__start&#45;&gt;werbung_mathe_lsfZuständigerHerausfinden</title>
<path fill="none" stroke="black" d="M1627.3,-686.385C1645.16,-684.252 1704.81,-676.661 1753,-665 1777.99,-658.953 1805.49,-650.24 1827.1,-642.9"/>
<polygon fill="black" stroke="black" points="1828.27,-646.2 1836.59,-639.639 1825.99,-639.58 1828.27,-646.2"/>
</g>
<!-- werbung_mathe__end -->
<g id="node49" class="node"><title>werbung_mathe__end</title>
<ellipse fill="red" stroke="black" cx="1622" cy="-508" rx="5.4" ry="5.4"/>
</g>
<!-- werbung_mathe__end&#45;&gt;werbung__end -->
<g id="edge65" class="edge"><title>werbung_mathe__end&#45;&gt;werbung__end</title>
<path fill="none" stroke="black" d="M1619.79,-502.709C1618.2,-499.945 1615.84,-496.428 1613,-494 1589.08,-473.524 1554.23,-459.97 1534.69,-453.473"/>
<polygon fill="black" stroke="black" points="1535.75,-450.135 1525.16,-450.464 1533.64,-456.811 1535.75,-450.135"/>
</g>
<!-- werbung_mathe_webseiteAnpassenLassen -->
<g id="node51" class="node"><title>werbung_mathe_webseiteAnpassenLassen</title>
<path fill="red" stroke="black" d="M1710.33,-579.5C1710.33,-579.5 1533.67,-579.5 1533.67,-579.5 1529.83,-579.5 1526,-575.667 1526,-571.833 1526,-571.833 1526,-564.167 1526,-564.167 1526,-560.333 1529.83,-556.5 1533.67,-556.5 1533.67,-556.5 1710.33,-556.5 1710.33,-556.5 1714.17,-556.5 1718,-560.333 1718,-564.167 1718,-564.167 1718,-571.833 1718,-571.833 1718,-575.667 1714.17,-579.5 1710.33,-579.5"/>
<text text-anchor="middle" x="1622" y="-564.3" font-family="sans-serif" font-size="14.00">webseiteAnpassenLassen</text>
</g>
<!-- werbung_mathe_webseitZuständigerHerausfinden&#45;&gt;werbung_mathe_webseiteAnpassenLassen -->
<g id="edge61" class="edge"><title>werbung_mathe_webseitZuständigerHerausfinden&#45;&gt;werbung_mathe_webseiteAnpassenLassen</title>
<path fill="none" stroke="black" d="M1622,-616.362C1622,-608.922 1622,-598.743 1622,-589.728"/>
<polygon fill="black" stroke="black" points="1625.5,-589.571 1622,-579.571 1618.5,-589.571 1625.5,-589.571"/>
</g>
<!-- werbung_mathe_webseiteAnpassenLassen&#45;&gt;werbung_mathe__end -->
<g id="edge62" class="edge"><title>werbung_mathe_webseiteAnpassenLassen&#45;&gt;werbung_mathe__end</title>
<path fill="none" stroke="black" d="M1622,-556.362C1622,-547.148 1622,-533.732 1622,-523.53"/>
<polygon fill="black" stroke="black" points="1625.5,-523.473 1622,-513.473 1618.5,-523.473 1625.5,-523.473"/>
</g>
<!-- werbung_mathe_lsfAnpassenLassen -->
<g id="node53" class="node"><title>werbung_mathe_lsfAnpassenLassen</title>
<path fill="red" stroke="black" d="M1901.58,-579.5C1901.58,-579.5 1772.42,-579.5 1772.42,-579.5 1768.58,-579.5 1764.75,-575.667 1764.75,-571.833 1764.75,-571.833 1764.75,-564.167 1764.75,-564.167 1764.75,-560.333 1768.58,-556.5 1772.42,-556.5 1772.42,-556.5 1901.58,-556.5 1901.58,-556.5 1905.42,-556.5 1909.25,-560.333 1909.25,-564.167 1909.25,-564.167 1909.25,-571.833 1909.25,-571.833 1909.25,-575.667 1905.42,-579.5 1901.58,-579.5"/>
<text text-anchor="middle" x="1837" y="-564.3" font-family="sans-serif" font-size="14.00">lsfAnpassenLassen</text>
</g>
<!-- werbung_mathe_lsfZuständigerHerausfinden&#45;&gt;werbung_mathe_lsfAnpassenLassen -->
<g id="edge63" class="edge"><title>werbung_mathe_lsfZuständigerHerausfinden&#45;&gt;werbung_mathe_lsfAnpassenLassen</title>
<path fill="none" stroke="black" d="M1860.68,-616.362C1856.8,-608.595 1851.42,-597.843 1846.77,-588.546"/>
<polygon fill="black" stroke="black" points="1849.89,-586.95 1842.29,-579.571 1843.63,-590.08 1849.89,-586.95"/>
</g>
<!-- werbung_mathe_lsfAnpassenLassen&#45;&gt;werbung_mathe__end -->
<g id="edge64" class="edge"><title>werbung_mathe_lsfAnpassenLassen&#45;&gt;werbung_mathe__end</title>
<path fill="none" stroke="black" d="M1798.07,-556.497C1749.78,-543.471 1669.83,-521.902 1636.89,-513.016"/>
<polygon fill="black" stroke="black" points="1637.59,-509.581 1627.02,-510.355 1635.77,-516.339 1637.59,-509.581"/>
</g>
<!-- werbung_physik_webseitZuständigerHerausfinden -->
<g id="node56" class="node"><title>werbung_physik_webseitZuständigerHerausfinden</title>
<path fill="green" stroke="black" d="M2230.58,-639.5C2230.58,-639.5 2001.42,-639.5 2001.42,-639.5 1997.58,-639.5 1993.75,-635.667 1993.75,-631.833 1993.75,-631.833 1993.75,-624.167 1993.75,-624.167 1993.75,-620.333 1997.58,-616.5 2001.42,-616.5 2001.42,-616.5 2230.58,-616.5 2230.58,-616.5 2234.42,-616.5 2238.25,-620.333 2238.25,-624.167 2238.25,-624.167 2238.25,-631.833 2238.25,-631.833 2238.25,-635.667 2234.42,-639.5 2230.58,-639.5"/>
<text text-anchor="middle" x="2116" y="-624.3" font-family="sans-serif" font-size="14.00">webseitZuständigerHerausfinden</text>
</g>
<!-- werbung_physik__start&#45;&gt;werbung_physik_webseitZuständigerHerausfinden -->
<g id="edge66" class="edge"><title>werbung_physik__start&#45;&gt;werbung_physik_webseitZuständigerHerausfinden</title>
<path fill="none" stroke="black" d="M2116,-682.449C2116,-675.415 2116,-661.475 2116,-649.594"/>
<polygon fill="black" stroke="black" points="2119.5,-649.52 2116,-639.52 2112.5,-649.52 2119.5,-649.52"/>
</g>
<!-- werbung_physik_lsfZuständigerHerausfinden -->
<g id="node58" class="node"><title>werbung_physik_lsfZuständigerHerausfinden</title>
<path fill="green" stroke="black" d="M2455.33,-639.5C2455.33,-639.5 2264.67,-639.5 2264.67,-639.5 2260.83,-639.5 2257,-635.667 2257,-631.833 2257,-631.833 2257,-624.167 2257,-624.167 2257,-620.333 2260.83,-616.5 2264.67,-616.5 2264.67,-616.5 2455.33,-616.5 2455.33,-616.5 2459.17,-616.5 2463,-620.333 2463,-624.167 2463,-624.167 2463,-631.833 2463,-631.833 2463,-635.667 2459.17,-639.5 2455.33,-639.5"/>
<text text-anchor="middle" x="2360" y="-624.3" font-family="sans-serif" font-size="14.00">lsfZuständigerHerausfinden</text>
</g>
<!-- werbung_physik__start&#45;&gt;werbung_physik_lsfZuständigerHerausfinden -->
<g id="edge67" class="edge"><title>werbung_physik__start&#45;&gt;werbung_physik_lsfZuständigerHerausfinden</title>
<path fill="none" stroke="black" d="M2121.3,-686.385C2139.16,-684.252 2198.81,-676.661 2247,-665 2271.99,-658.953 2299.49,-650.24 2321.1,-642.9"/>
<polygon fill="black" stroke="black" points="2322.27,-646.2 2330.59,-639.639 2319.99,-639.58 2322.27,-646.2"/>
</g>
<!-- werbung_physik__end -->
<g id="node55" class="node"><title>werbung_physik__end</title>
<ellipse fill="red" stroke="black" cx="2116" cy="-508" rx="5.4" ry="5.4"/>
</g>
<!-- werbung_physik__end&#45;&gt;werbung__end -->
<g id="edge72" class="edge"><title>werbung_physik__end&#45;&gt;werbung__end</title>
<path fill="none" stroke="black" d="M2110.48,-506.463C2056.51,-501.211 1623.12,-459.035 1535.43,-450.502"/>
<polygon fill="black" stroke="black" points="1535.55,-446.997 1525.26,-449.512 1534.88,-453.964 1535.55,-446.997"/>
</g>
<!-- werbung_physik_webseiteAnpassenLassen -->
<g id="node57" class="node"><title>werbung_physik_webseiteAnpassenLassen</title>
<path fill="red" stroke="black" d="M2204.33,-579.5C2204.33,-579.5 2027.67,-579.5 2027.67,-579.5 2023.83,-579.5 2020,-575.667 2020,-571.833 2020,-571.833 2020,-564.167 2020,-564.167 2020,-560.333 2023.83,-556.5 2027.67,-556.5 2027.67,-556.5 2204.33,-556.5 2204.33,-556.5 2208.17,-556.5 2212,-560.333 2212,-564.167 2212,-564.167 2212,-571.833 2212,-571.833 2212,-575.667 2208.17,-579.5 2204.33,-579.5"/>
<text text-anchor="middle" x="2116" y="-564.3" font-family="sans-serif" font-size="14.00">webseiteAnpassenLassen</text>
</g>
<!-- werbung_physik_webseitZuständigerHerausfinden&#45;&gt;werbung_physik_webseiteAnpassenLassen -->
<g id="edge68" class="edge"><title>werbung_physik_webseitZuständigerHerausfinden&#45;&gt;werbung_physik_webseiteAnpassenLassen</title>
<path fill="none" stroke="black" d="M2116,-616.362C2116,-608.922 2116,-598.743 2116,-589.728"/>
<polygon fill="black" stroke="black" points="2119.5,-589.571 2116,-579.571 2112.5,-589.571 2119.5,-589.571"/>
</g>
<!-- werbung_physik_webseiteAnpassenLassen&#45;&gt;werbung_physik__end -->
<g id="edge69" class="edge"><title>werbung_physik_webseiteAnpassenLassen&#45;&gt;werbung_physik__end</title>
<path fill="none" stroke="black" d="M2116,-556.362C2116,-547.148 2116,-533.732 2116,-523.53"/>
<polygon fill="black" stroke="black" points="2119.5,-523.473 2116,-513.473 2112.5,-523.473 2119.5,-523.473"/>
</g>
<!-- werbung_physik_lsfAnpassenLassen -->
<g id="node59" class="node"><title>werbung_physik_lsfAnpassenLassen</title>
<path fill="red" stroke="black" d="M2395.58,-579.5C2395.58,-579.5 2266.42,-579.5 2266.42,-579.5 2262.58,-579.5 2258.75,-575.667 2258.75,-571.833 2258.75,-571.833 2258.75,-564.167 2258.75,-564.167 2258.75,-560.333 2262.58,-556.5 2266.42,-556.5 2266.42,-556.5 2395.58,-556.5 2395.58,-556.5 2399.42,-556.5 2403.25,-560.333 2403.25,-564.167 2403.25,-564.167 2403.25,-571.833 2403.25,-571.833 2403.25,-575.667 2399.42,-579.5 2395.58,-579.5"/>
<text text-anchor="middle" x="2331" y="-564.3" font-family="sans-serif" font-size="14.00">lsfAnpassenLassen</text>
</g>
<!-- werbung_physik_lsfZuständigerHerausfinden&#45;&gt;werbung_physik_lsfAnpassenLassen -->
<g id="edge70" class="edge"><title>werbung_physik_lsfZuständigerHerausfinden&#45;&gt;werbung_physik_lsfAnpassenLassen</title>
<path fill="none" stroke="black" d="M2354.68,-616.362C2350.8,-608.595 2345.42,-597.843 2340.77,-588.546"/>
<polygon fill="black" stroke="black" points="2343.89,-586.95 2336.29,-579.571 2337.63,-590.08 2343.89,-586.95"/>
</g>
<!-- werbung_physik_lsfAnpassenLassen&#45;&gt;werbung_physik__end -->
<g id="edge71" class="edge"><title>werbung_physik_lsfAnpassenLassen&#45;&gt;werbung_physik__end</title>
<path fill="none" stroke="black" d="M2292.07,-556.497C2243.78,-543.471 2163.83,-521.902 2130.89,-513.016"/>
<polygon fill="black" stroke="black" points="2131.59,-509.581 2121.02,-510.355 2129.77,-516.339 2131.59,-509.581"/>
</g>
<!-- werbung_info_webseitZuständigerHerausfinden -->
<g id="node62" class="node"><title>werbung_info_webseitZuständigerHerausfinden</title>
<path fill="green" stroke="black" d="M2724.58,-639.5C2724.58,-639.5 2495.42,-639.5 2495.42,-639.5 2491.58,-639.5 2487.75,-635.667 2487.75,-631.833 2487.75,-631.833 2487.75,-624.167 2487.75,-624.167 2487.75,-620.333 2491.58,-616.5 2495.42,-616.5 2495.42,-616.5 2724.58,-616.5 2724.58,-616.5 2728.42,-616.5 2732.25,-620.333 2732.25,-624.167 2732.25,-624.167 2732.25,-631.833 2732.25,-631.833 2732.25,-635.667 2728.42,-639.5 2724.58,-639.5"/>
<text text-anchor="middle" x="2610" y="-624.3" font-family="sans-serif" font-size="14.00">webseitZuständigerHerausfinden</text>
</g>
<!-- werbung_info__start&#45;&gt;werbung_info_webseitZuständigerHerausfinden -->
<g id="edge73" class="edge"><title>werbung_info__start&#45;&gt;werbung_info_webseitZuständigerHerausfinden</title>
<path fill="none" stroke="black" d="M2610,-682.449C2610,-675.415 2610,-661.475 2610,-649.594"/>
<polygon fill="black" stroke="black" points="2613.5,-649.52 2610,-639.52 2606.5,-649.52 2613.5,-649.52"/>
</g>
<!-- werbung_info_lsfZuständigerHerausfinden -->
<g id="node64" class="node"><title>werbung_info_lsfZuständigerHerausfinden</title>
<path fill="green" stroke="black" d="M2949.33,-639.5C2949.33,-639.5 2758.67,-639.5 2758.67,-639.5 2754.83,-639.5 2751,-635.667 2751,-631.833 2751,-631.833 2751,-624.167 2751,-624.167 2751,-620.333 2754.83,-616.5 2758.67,-616.5 2758.67,-616.5 2949.33,-616.5 2949.33,-616.5 2953.17,-616.5 2957,-620.333 2957,-624.167 2957,-624.167 2957,-631.833 2957,-631.833 2957,-635.667 2953.17,-639.5 2949.33,-639.5"/>
<text text-anchor="middle" x="2854" y="-624.3" font-family="sans-serif" font-size="14.00">lsfZuständigerHerausfinden</text>
</g>
<!-- werbung_info__start&#45;&gt;werbung_info_lsfZuständigerHerausfinden -->
<g id="edge74" class="edge"><title>werbung_info__start&#45;&gt;werbung_info_lsfZuständigerHerausfinden</title>
<path fill="none" stroke="black" d="M2615.3,-686.385C2633.16,-684.252 2692.81,-676.661 2741,-665 2765.99,-658.953 2793.49,-650.24 2815.1,-642.9"/>
<polygon fill="black" stroke="black" points="2816.27,-646.2 2824.59,-639.639 2813.99,-639.58 2816.27,-646.2"/>
</g>
<!-- werbung_info__end -->
<g id="node61" class="node"><title>werbung_info__end</title>
<ellipse fill="red" stroke="black" cx="2610" cy="-508" rx="5.4" ry="5.4"/>
</g>
<!-- werbung_info__end&#45;&gt;werbung__end -->
<g id="edge79" class="edge"><title>werbung_info__end&#45;&gt;werbung__end</title>
<path fill="none" stroke="black" d="M2604.61,-506.385C2586.39,-504.328 2525.49,-497.619 2475,-494 2093.93,-466.69 1626.08,-452.111 1535.56,-449.448"/>
<polygon fill="black" stroke="black" points="1535.44,-445.943 1525.34,-449.151 1535.24,-452.94 1535.44,-445.943"/>
</g>
<!-- werbung_info_webseiteAnpassenLassen -->
<g id="node63" class="node"><title>werbung_info_webseiteAnpassenLassen</title>
<path fill="red" stroke="black" d="M2698.33,-579.5C2698.33,-579.5 2521.67,-579.5 2521.67,-579.5 2517.83,-579.5 2514,-575.667 2514,-571.833 2514,-571.833 2514,-564.167 2514,-564.167 2514,-560.333 2517.83,-556.5 2521.67,-556.5 2521.67,-556.5 2698.33,-556.5 2698.33,-556.5 2702.17,-556.5 2706,-560.333 2706,-564.167 2706,-564.167 2706,-571.833 2706,-571.833 2706,-575.667 2702.17,-579.5 2698.33,-579.5"/>
<text text-anchor="middle" x="2610" y="-564.3" font-family="sans-serif" font-size="14.00">webseiteAnpassenLassen</text>
</g>
<!-- werbung_info_webseitZuständigerHerausfinden&#45;&gt;werbung_info_webseiteAnpassenLassen -->
<g id="edge75" class="edge"><title>werbung_info_webseitZuständigerHerausfinden&#45;&gt;werbung_info_webseiteAnpassenLassen</title>
<path fill="none" stroke="black" d="M2610,-616.362C2610,-608.922 2610,-598.743 2610,-589.728"/>
<polygon fill="black" stroke="black" points="2613.5,-589.571 2610,-579.571 2606.5,-589.571 2613.5,-589.571"/>
</g>
<!-- werbung_info_webseiteAnpassenLassen&#45;&gt;werbung_info__end -->
<g id="edge76" class="edge"><title>werbung_info_webseiteAnpassenLassen&#45;&gt;werbung_info__end</title>
<path fill="none" stroke="black" d="M2610,-556.362C2610,-547.148 2610,-533.732 2610,-523.53"/>
<polygon fill="black" stroke="black" points="2613.5,-523.473 2610,-513.473 2606.5,-523.473 2613.5,-523.473"/>
</g>
<!-- werbung_info_lsfAnpassenLassen -->
<g id="node65" class="node"><title>werbung_info_lsfAnpassenLassen</title>
<path fill="red" stroke="black" d="M2889.58,-579.5C2889.58,-579.5 2760.42,-579.5 2760.42,-579.5 2756.58,-579.5 2752.75,-575.667 2752.75,-571.833 2752.75,-571.833 2752.75,-564.167 2752.75,-564.167 2752.75,-560.333 2756.58,-556.5 2760.42,-556.5 2760.42,-556.5 2889.58,-556.5 2889.58,-556.5 2893.42,-556.5 2897.25,-560.333 2897.25,-564.167 2897.25,-564.167 2897.25,-571.833 2897.25,-571.833 2897.25,-575.667 2893.42,-579.5 2889.58,-579.5"/>
<text text-anchor="middle" x="2825" y="-564.3" font-family="sans-serif" font-size="14.00">lsfAnpassenLassen</text>
</g>
<!-- werbung_info_lsfZuständigerHerausfinden&#45;&gt;werbung_info_lsfAnpassenLassen -->
<g id="edge77" class="edge"><title>werbung_info_lsfZuständigerHerausfinden&#45;&gt;werbung_info_lsfAnpassenLassen</title>
<path fill="none" stroke="black" d="M2848.68,-616.362C2844.8,-608.595 2839.42,-597.843 2834.77,-588.546"/>
<polygon fill="black" stroke="black" points="2837.89,-586.95 2830.29,-579.571 2831.63,-590.08 2837.89,-586.95"/>
</g>
<!-- werbung_info_lsfAnpassenLassen&#45;&gt;werbung_info__end -->
<g id="edge78" class="edge"><title>werbung_info_lsfAnpassenLassen&#45;&gt;werbung_info__end</title>
<path fill="none" stroke="black" d="M2786.07,-556.497C2737.78,-543.471 2657.83,-521.902 2624.89,-513.016"/>
<polygon fill="black" stroke="black" points="2625.59,-509.581 2615.02,-510.355 2623.77,-516.339 2625.59,-509.581"/>
</g>
<!-- weiteres_wegweiserBesprechen -->
<g id="node68" class="node"><title>weiteres_wegweiserBesprechen</title>
<path fill="green" stroke="black" d="M3153.33,-699.5C3153.33,-699.5 2996.67,-699.5 2996.67,-699.5 2992.83,-699.5 2989,-695.667 2989,-691.833 2989,-691.833 2989,-684.167 2989,-684.167 2989,-680.333 2992.83,-676.5 2996.67,-676.5 2996.67,-676.5 3153.33,-676.5 3153.33,-676.5 3157.17,-676.5 3161,-680.333 3161,-684.167 3161,-684.167 3161,-691.833 3161,-691.833 3161,-695.667 3157.17,-699.5 3153.33,-699.5"/>
<text text-anchor="middle" x="3075" y="-684.3" font-family="sans-serif" font-size="14.00">wegweiserBesprechen</text>
</g>
<!-- weiteres__start&#45;&gt;weiteres_wegweiserBesprechen -->
<g id="edge81" class="edge"><title>weiteres__start&#45;&gt;weiteres_wegweiserBesprechen</title>
<path fill="none" stroke="black" d="M3036.95,-737.26C3041.76,-731.16 3051.61,-718.668 3060.08,-707.922"/>
<polygon fill="black" stroke="black" points="3063.01,-709.853 3066.46,-699.834 3057.52,-705.519 3063.01,-709.853"/>
</g>
<!-- weiteres__end -->
<g id="node67" class="node"><title>weiteres__end</title>
<ellipse fill="red" stroke="black" cx="3029" cy="-568" rx="5.4" ry="5.4"/>
</g>
<!-- weiteres__end&#45;&gt;_end -->
<g id="edge84" class="edge"><title>weiteres__end&#45;&gt;_end</title>
<path fill="none" stroke="black" d="M3027.75,-562.54C3023.53,-547.012 3010,-493.82 3010,-449 3010,-449 3010,-449 3010,-101 3010,-8.45324 1438.65,-6.87266 1264.61,-6.98144"/>
<polygon fill="black" stroke="black" points="1264.37,-3.48157 1254.37,-6.99117 1264.37,-10.4816 1264.37,-3.48157"/>
</g>
<!-- weiteres_wegweiserHolen -->
<g id="node69" class="node"><title>weiteres_wegweiserHolen</title>
<path fill="red" stroke="black" d="M3122.58,-639.5C3122.58,-639.5 3007.42,-639.5 3007.42,-639.5 3003.58,-639.5 2999.75,-635.667 2999.75,-631.833 2999.75,-631.833 2999.75,-624.167 2999.75,-624.167 2999.75,-620.333 3003.58,-616.5 3007.42,-616.5 3007.42,-616.5 3122.58,-616.5 3122.58,-616.5 3126.42,-616.5 3130.25,-620.333 3130.25,-624.167 3130.25,-624.167 3130.25,-631.833 3130.25,-631.833 3130.25,-635.667 3126.42,-639.5 3122.58,-639.5"/>
<text text-anchor="middle" x="3065" y="-624.3" font-family="sans-serif" font-size="14.00">wegweiserHolen</text>
</g>
<!-- weiteres_wegweiserBesprechen&#45;&gt;weiteres_wegweiserHolen -->
<g id="edge82" class="edge"><title>weiteres_wegweiserBesprechen&#45;&gt;weiteres_wegweiserHolen</title>
<path fill="none" stroke="black" d="M3073.17,-676.362C3071.87,-668.84 3070.09,-658.519 3068.52,-649.431"/>
<polygon fill="black" stroke="black" points="3071.97,-648.831 3066.82,-639.571 3065.07,-650.02 3071.97,-648.831"/>
</g>
<!-- weiteres_wegweiserHolen&#45;&gt;weiteres__end -->
<g id="edge83" class="edge"><title>weiteres_wegweiserHolen&#45;&gt;weiteres__end</title>
<path fill="none" stroke="black" d="M3058.4,-616.362C3052.31,-606.551 3043.26,-591.977 3036.81,-581.59"/>
<polygon fill="black" stroke="black" points="3039.69,-579.58 3031.44,-572.93 3033.74,-583.272 3039.69,-579.58"/>
</g>
</g>
</svg>
